<?xml version="1.0" encoding="UTF-8" standalone="no"?>
<svg width="1600" height="900" xmlns="http://www.w3.org/2000/svg">
  <!-- Background -->
  <rect width="1600" height="900" fill="#1f2937" />
  
  <!-- Floor -->
  <rect x="0" y="700" width="1600" height="200" fill="#2c3e50" />
  
  <!-- Commercial cooler refrigerator -->
  <g id="cooler">
    <!-- Main body -->
    <rect x="500" y="150" width="600" height="550" rx="10" fill="#374151" stroke="#f5f5f5" stroke-width="4" />
    
    <!-- Door outline -->
    <rect x="520" y="170" width="560" height="510" rx="5" fill="#1f2937" stroke="#f5f5f5" stroke-width="2" />
    
    <!-- Door handle -->
    <rect x="1030" y="300" width="20" height="250" rx="5" fill="#d1d5db" />
    
    <!-- Glass door reflection highlights -->
    <rect x="550" y="190" width="500" height="470" rx="3" fill="none" stroke="#a3a3a3" stroke-width="1" opacity="0.5" />
    <line x1="550" y1="190" x2="1050" y2="660" stroke="#a3a3a3" stroke-width="1" opacity="0.3" />
    
    <!-- Shelves -->
    <line x1="550" y1="270" x2="1050" y2="270" stroke="#d1d5db" stroke-width="3" />
    <line x1="550" y1="370" x2="1050" y2="370" stroke="#d1d5db" stroke-width="3" />
    <line x1="550" y1="470" x2="1050" y2="470" stroke="#d1d5db" stroke-width="3" />
    <line x1="550" y1="570" x2="1050" y2="570" stroke="#d1d5db" stroke-width="3" />
    
    <!-- Temperature display -->
    <rect x="520" y="120" width="80" height="30" rx="3" fill="#111827" />
    <text x="560" y="142" font-family="monospace" font-size="16" fill="#facc15" text-anchor="middle">34°F</text>
    
    <!-- Brand label -->
    <rect x="800" y="120" width="120" height="30" rx="3" fill="#facc15" />
    <text x="860" y="142" font-family="Arial, sans-serif" font-size="16" font-weight="bold" fill="#1f2937" text-anchor="middle">RPM</text>
  </g>
  
  <!-- Floor shadow -->
  <ellipse cx="800" cy="700" rx="400" ry="20" fill="#111827" opacity="0.3" />
  
  <!-- RPM Logo/Watermark -->
  <g id="rpm-logo" opacity="0.1" transform="translate(1400, 100)">
    <circle cx="0" cy="0" r="60" fill="#facc15" />
    <text x="0" y="10" font-family="Arial, sans-serif" font-size="32" font-weight="bold" fill="#1f2937" text-anchor="middle">RPM</text>
  </g>
  
  <!-- Title -->
  <text x="800" y="820" font-family="Arial, sans-serif" font-size="28" fill="#f5f5f5" text-anchor="middle">Rapid Pro Maintenance - Commercial Kitchen Solutions</text>
  
  <!-- Products on shelves (simplified) -->
  <g id="products" opacity="0.8">
    <!-- Shelf 1 -->
    <rect x="600" y="220" width="40" height="50" fill="#60a5fa" />
    <rect x="660" y="230" width="45" height="40" fill="#d1d5db" />
    <rect x="730" y="225" width="30" height="45" fill="#f59e0b" />
    <rect x="790" y="215" width="50" height="55" fill="#10b981" />
    <rect x="870" y="230" width="35" height="40" fill="#8b5cf6" />
    <rect x="930" y="225" width="45" height="45" fill="#ef4444" />
    
    <!-- Shelf 2 -->
    <rect x="580" y="320" width="50" height="50" fill="#f59e0b" />
    <rect x="650" y="330" width="40" height="40" fill="#8b5cf6" />
    <rect x="720" y="325" width="55" height="45" fill="#d1d5db" />
    <rect x="800" y="315" width="35" height="55" fill="#60a5fa" />
    <rect x="860" y="320" width="40" height="50" fill="#10b981" />
    <rect x="920" y="325" width="50" height="45" fill="#ef4444" />
    
    <!-- Shelf 3 -->
    <rect x="610" y="420" width="45" height="50" fill="#8b5cf6" />
    <rect x="680" y="430" width="50" height="40" fill="#ef4444" />
    <rect x="750" y="425" width="40" height="45" fill="#60a5fa" />
    <rect x="820" y="415" width="45" height="55" fill="#f59e0b" />
    <rect x="890" y="420" width="55" height="50" fill="#d1d5db" />
    <rect x="960" y="425" width="35" height="45" fill="#10b981" />
    
    <!-- Shelf 4 -->
    <rect x="590" y="520" width="55" height="50" fill="#10b981" />
    <rect x="660" y="530" width="45" height="40" fill="#60a5fa" />
    <rect x="730" y="525" width="50" height="45" fill="#ef4444" />
    <rect x="800" y="515" width="40" height="55" fill="#8b5cf6" />
    <rect x="870" y="525" width="55" height="45" fill="#f59e0b" />
    <rect x="940" y="520" width="45" height="50" fill="#d1d5db" />
  </g>
</svg>